<svg width="48" height="48" viewBox="0 0 48 48" fill="none" xmlns="http://www.w3.org/2000/svg">
<g clip-path="url(#clip0_7_138)">
<path d="M48 24C48 10.7451 37.2548 -3.05176e-05 24 -3.05176e-05C10.7452 -3.05176e-05 0 10.7451 0 24C0 35.9789 8.77641 45.9079 20.25 47.7084V30.9375H14.1562V24H20.25V18.7125C20.25 12.6975 23.8331 9.37497 29.3152 9.37497C31.9402 9.37497 34.6875 9.84372 34.6875 9.84372V15.75H31.6613C28.68 15.75 27.75 17.6001 27.75 19.5V24H34.4062L33.3422 30.9375H27.75V47.7084C39.2236 45.9079 48 35.9789 48 24Z" fill="#1877F2"/>
<path d="M33.3422 30.9375L34.4062 24H27.75V19.5C27.75 17.602 28.68 15.75 31.6613 15.75H34.6875V9.84372C34.6875 9.84372 31.9411 9.37497 29.3152 9.37497C23.8331 9.37497 20.25 12.6975 20.25 18.7125V24H14.1562V30.9375H20.25V47.7084C22.7349 48.0972 25.2651 48.0972 27.75 47.7084V30.9375H33.3422Z" fill="white"/>
</g>
<defs>
<clipPath id="clip0_7_138">
<rect width="48" height="48" fill="white"/>
</clipPath>
</defs>
</svg>
