<svg width="48" height="48" viewBox="0 0 48 48" fill="none" xmlns="http://www.w3.org/2000/svg">
<path d="M24.0141 4.32269C30.4303 4.32269 31.1902 4.35082 33.7135 4.46334C36.0586 4.56649 37.325 4.96031 38.1692 5.2885C39.2855 5.71984 40.0922 6.24494 40.9271 7.07948C41.7714 7.92339 42.2873 8.72042 42.7188 9.83627C43.0471 10.6802 43.4411 11.9554 43.5443 14.2903C43.6568 16.822 43.685 17.5815 43.685 23.9859C43.685 30.3997 43.6568 31.1592 43.5443 33.6816C43.4411 36.0258 43.0471 37.2916 42.7188 38.1355C42.2873 39.2514 41.762 40.0578 40.9271 40.8923C40.0829 41.7362 39.2855 42.252 38.1692 42.6833C37.325 43.0115 36.0493 43.4053 33.7135 43.5085C31.1808 43.621 30.421 43.6491 24.0141 43.6491C17.5978 43.6491 16.838 43.621 14.3146 43.5085C11.9695 43.4053 10.7031 43.0115 9.8589 42.6833C8.74262 42.252 7.9359 41.7269 7.10104 40.8923C6.25679 40.0484 5.74086 39.2514 5.30936 38.1355C4.98104 37.2916 4.58706 36.0164 4.48388 33.6816C4.37131 31.1498 4.34317 30.3903 4.34317 23.9859C4.34317 17.5722 4.37131 16.8126 4.48388 14.2903C4.58706 11.9461 4.98104 10.6802 5.30936 9.83627C5.74086 8.72042 6.26617 7.91402 7.10104 7.07948C7.94528 6.23556 8.74262 5.71984 9.8589 5.2885C10.7031 4.96031 11.9789 4.56649 14.3146 4.46334C16.838 4.35082 17.5978 4.32269 24.0141 4.32269ZM24.0141 -3.05176e-05C17.4946 -3.05176e-05 16.6785 0.0281 14.1176 0.140622C11.5662 0.253144 9.812 0.665724 8.29236 1.25646C6.70706 1.87534 5.36564 2.69112 4.03361 4.03201C2.6922 5.36352 1.8761 6.7044 1.25699 8.27971C0.666015 9.80814 0.253273 11.5522 0.140707 14.1027C0.0281415 16.672 0 17.4878 0 24.0047C0 30.5216 0.0281415 31.3373 0.140707 33.8972C0.253273 36.4477 0.666015 38.2012 1.25699 39.7202C1.8761 41.3049 2.6922 42.6458 4.03361 43.9773C5.36564 45.3088 6.70706 46.134 8.28298 46.7435C9.812 47.3342 11.5568 47.7468 14.1083 47.8593C16.6691 47.9718 17.4852 48 24.0047 48C30.5241 48 31.3402 47.9718 33.9011 47.8593C36.4526 47.7468 38.2068 47.3342 39.7264 46.7435C41.3023 46.134 42.6437 45.3088 43.9758 43.9773C45.3078 42.6458 46.1333 41.3049 46.743 39.7296C47.334 38.2012 47.7467 36.4571 47.8593 33.9066C47.9719 31.3467 48 30.5309 48 24.014C48 17.4971 47.9719 16.6814 47.8593 14.1215C47.7467 11.571 47.334 9.81751 46.743 8.29847C46.152 6.7044 45.3359 5.36352 43.9945 4.03201C42.6625 2.7005 41.3211 1.87534 39.7452 1.26584C38.2161 0.675101 36.4714 0.262521 33.9199 0.149999C31.3496 0.0281 30.5335 -3.05176e-05 24.0141 -3.05176e-05Z" fill="url(#paint0_linear_7_141)"/>
<path d="M24.0141 11.674C17.2038 11.674 11.6787 17.197 11.6787 24.0046C11.6787 30.8122 17.2038 36.3351 24.0141 36.3351C30.8243 36.3351 36.3494 30.8122 36.3494 24.0046C36.3494 17.197 30.8243 11.674 24.0141 11.674ZM24.0141 32.003C19.5958 32.003 16.0125 28.4211 16.0125 24.0046C16.0125 19.5881 19.5958 16.0061 24.0141 16.0061C28.4323 16.0061 32.0156 19.5881 32.0156 24.0046C32.0156 28.4211 28.4323 32.003 24.0141 32.003Z" fill="url(#paint1_linear_7_141)"/>
<path d="M39.7171 11.1864C39.7171 12.7805 38.4226 14.0651 36.8373 14.0651C35.2426 14.0651 33.9575 12.7711 33.9575 11.1864C33.9575 9.59234 35.252 8.30771 36.8373 8.30771C38.4226 8.30771 39.7171 9.60171 39.7171 11.1864Z" fill="url(#paint2_linear_7_141)"/>
<defs>
<linearGradient id="paint0_linear_7_141" x1="24" y1="-3.05176e-05" x2="24" y2="48" gradientUnits="userSpaceOnUse">
<stop stop-color="#FD749B"/>
<stop offset="1" stop-color="#281AC8"/>
</linearGradient>
<linearGradient id="paint1_linear_7_141" x1="24.0141" y1="11.674" x2="24.0141" y2="36.3351" gradientUnits="userSpaceOnUse">
<stop stop-color="#FD749B"/>
<stop offset="1" stop-color="#281AC8"/>
</linearGradient>
<linearGradient id="paint2_linear_7_141" x1="36.8373" y1="8.30771" x2="36.8373" y2="14.0651" gradientUnits="userSpaceOnUse">
<stop stop-color="#FD749B"/>
<stop offset="1" stop-color="#281AC8"/>
</linearGradient>
</defs>
</svg>
