<svg width="48" height="48" viewBox="0 0 48 48" fill="none" xmlns="http://www.w3.org/2000/svg">
<g clip-path="url(#clip0_7_140)">
<path d="M44.4567 -3.05176e-05H3.54333C2.60358 -3.05176e-05 1.70232 0.373284 1.03782 1.03779C0.373315 1.70229 0 2.60355 0 3.5433V44.4566C0 45.3964 0.373315 46.2976 1.03782 46.9622C1.70232 47.6267 2.60358 48 3.54333 48H44.4567C45.3964 48 46.2977 47.6267 46.9622 46.9622C47.6267 46.2976 48 45.3964 48 44.4566V3.5433C48 2.60355 47.6267 1.70229 46.9622 1.03779C46.2977 0.373284 45.3964 -3.05176e-05 44.4567 -3.05176e-05ZM14.3067 40.89H7.09V17.9666H14.3067V40.89ZM10.6933 14.79C9.87473 14.7854 9.07583 14.5384 8.39747 14.0801C7.71911 13.6219 7.19168 12.973 6.88175 12.2153C6.57183 11.4577 6.4933 10.6252 6.65606 9.82288C6.81883 9.0206 7.2156 8.28452 7.79631 7.70753C8.37702 7.13054 9.11563 6.7385 9.91893 6.58089C10.7222 6.42328 11.5542 6.50716 12.3099 6.82194C13.0656 7.13672 13.7111 7.6683 14.1649 8.34959C14.6188 9.03088 14.8606 9.83135 14.86 10.65C14.8677 11.198 14.765 11.742 14.558 12.2496C14.351 12.7571 14.044 13.2178 13.6551 13.6041C13.2663 13.9904 12.8037 14.2945 12.2948 14.4983C11.786 14.702 11.2413 14.8012 10.6933 14.79ZM40.9067 40.91H33.6933V28.3866C33.6933 24.6933 32.1233 23.5533 30.0967 23.5533C27.9567 23.5533 25.8567 25.1666 25.8567 28.48V40.91H18.64V17.9833H25.58V21.16H25.6733C26.37 19.75 28.81 17.34 32.5333 17.34C36.56 17.34 40.91 19.73 40.91 26.73L40.9067 40.91Z" fill="#0A66C2"/>
</g>
<defs>
<clipPath id="clip0_7_140">
<rect width="48" height="48" fill="white"/>
</clipPath>
</defs>
</svg>
