<svg width="150" height="38" viewBox="0 0 150 38" fill="none" xmlns="http://www.w3.org/2000/svg">
<path d="M2.52 33H7.416V24.216H13.464C13.704 24.216 14.04 24.204 14.472 24.18C14.904 24.156 15.288 24.12 15.624 24.072C17.928 23.712 19.62 22.764 20.7 21.228C21.78 19.68 22.32 17.82 22.32 15.648C22.32 13.464 21.786 11.604 20.718 10.068C19.65 8.532 17.952 7.584 15.624 7.224C15.288 7.164 14.904 7.128 14.472 7.116C14.052 7.092 13.716 7.08 13.464 7.08H2.52V33ZM7.416 19.644V11.652H13.248C13.5 11.652 13.776 11.664 14.076 11.688C14.376 11.712 14.652 11.76 14.904 11.832C15.564 12.012 16.074 12.318 16.434 12.75C16.794 13.17 17.04 13.644 17.172 14.172C17.316 14.688 17.388 15.18 17.388 15.648C17.388 16.116 17.316 16.614 17.172 17.142C17.04 17.658 16.794 18.132 16.434 18.564C16.074 18.984 15.564 19.284 14.904 19.464C14.652 19.536 14.376 19.584 14.076 19.608C13.776 19.632 13.5 19.644 13.248 19.644H7.416ZM32.8905 33.54C34.8345 33.54 36.5445 33.108 38.0205 32.244C39.5085 31.368 40.6665 30.162 41.4945 28.626C42.3345 27.078 42.7545 25.296 42.7545 23.28C42.7545 21.276 42.3405 19.506 41.5125 17.97C40.6845 16.422 39.5265 15.21 38.0385 14.334C36.5625 13.458 34.8465 13.02 32.8905 13.02C30.9705 13.02 29.2725 13.452 27.7965 14.316C26.3205 15.18 25.1625 16.386 24.3225 17.934C23.4825 19.47 23.0625 21.252 23.0625 23.28C23.0625 25.284 23.4705 27.06 24.2865 28.608C25.1145 30.144 26.2665 31.35 27.7425 32.226C29.2185 33.102 30.9345 33.54 32.8905 33.54ZM32.8905 28.968C31.3665 28.968 30.2085 28.458 29.4165 27.438C28.6365 26.406 28.2465 25.02 28.2465 23.28C28.2465 21.588 28.6185 20.22 29.3625 19.176C30.1185 18.12 31.2945 17.592 32.8905 17.592C34.4385 17.592 35.6025 18.108 36.3825 19.14C37.1745 20.172 37.5705 21.552 37.5705 23.28C37.5705 24.948 37.1805 26.316 36.4005 27.384C35.6325 28.44 34.4625 28.968 32.8905 28.968ZM45.2728 33H50.2048V23.064C50.2048 20.808 51.0928 19.272 52.8688 18.456C53.4448 18.18 54.0868 18.018 54.7948 17.97C55.5148 17.91 56.1448 17.964 56.6848 18.132V13.56C55.8088 13.452 54.9328 13.476 54.0568 13.632C53.1808 13.776 52.3888 14.064 51.6808 14.496C51.2248 14.76 50.8228 15.078 50.4748 15.45C50.1388 15.822 49.8448 16.236 49.5928 16.692V13.56H45.2728V33ZM70.3328 33V28.932C69.1808 29.088 68.1308 29.136 67.1828 29.076C66.2348 29.016 65.5448 28.644 65.1128 27.96C64.8848 27.6 64.7588 27.12 64.7348 26.52C64.7228 25.908 64.7168 25.224 64.7168 24.468V17.34H70.3328V13.56H64.7168V8.16H59.8208V13.56H56.5088V17.34H59.8208V24.756C59.8208 25.92 59.8328 26.964 59.8568 27.888C59.8808 28.8 60.1328 29.7 60.6128 30.588C61.1408 31.536 61.9088 32.226 62.9168 32.658C63.9368 33.078 65.0888 33.3 66.3728 33.324C67.6688 33.36 68.9888 33.252 70.3328 33ZM74.8448 33H79.7408V17.34H84.2408V13.56H79.7408V12.48C79.7408 11.94 79.9268 11.478 80.2988 11.094C80.6708 10.698 81.2408 10.5 82.0088 10.5H84.2408V6.54H81.8288C81.3608 6.54 80.7968 6.552 80.1368 6.576C79.4768 6.588 78.7928 6.72 78.0848 6.972C77.3888 7.212 76.7408 7.668 76.1408 8.34C75.6848 8.844 75.3668 9.408 75.1868 10.032C75.0068 10.656 74.9048 11.28 74.8808 11.904C74.8568 12.516 74.8448 13.068 74.8448 13.56H71.7848V17.34H74.8448V33ZM93.7164 33.54C95.6604 33.54 97.3704 33.108 98.8464 32.244C100.334 31.368 101.492 30.162 102.32 28.626C103.16 27.078 103.58 25.296 103.58 23.28C103.58 21.276 103.166 19.506 102.338 17.97C101.51 16.422 100.352 15.21 98.8644 14.334C97.3884 13.458 95.6724 13.02 93.7164 13.02C91.7964 13.02 90.0984 13.452 88.6224 14.316C87.1464 15.18 85.9884 16.386 85.1484 17.934C84.3084 19.47 83.8884 21.252 83.8884 23.28C83.8884 25.284 84.2964 27.06 85.1124 28.608C85.9404 30.144 87.0924 31.35 88.5684 32.226C90.0444 33.102 91.7604 33.54 93.7164 33.54ZM93.7164 28.968C92.1924 28.968 91.0344 28.458 90.2424 27.438C89.4624 26.406 89.0724 25.02 89.0724 23.28C89.0724 21.588 89.4444 20.22 90.1884 19.176C90.9444 18.12 92.1204 17.592 93.7164 17.592C95.2644 17.592 96.4284 18.108 97.2084 19.14C98.0004 20.172 98.3964 21.552 98.3964 23.28C98.3964 24.948 98.0064 26.316 97.2264 27.384C96.4584 28.44 95.2884 28.968 93.7164 28.968ZM106.459 33H111.355V6.54H106.459V33ZM115.671 10.86H120.567V6.54H115.671V10.86ZM115.671 33H120.567V13.56H115.671V33ZM133.271 33.54C135.215 33.54 136.925 33.108 138.401 32.244C139.889 31.368 141.047 30.162 141.875 28.626C142.715 27.078 143.135 25.296 143.135 23.28C143.135 21.276 142.721 19.506 141.893 17.97C141.065 16.422 139.907 15.21 138.419 14.334C136.943 13.458 135.227 13.02 133.271 13.02C131.351 13.02 129.653 13.452 128.177 14.316C126.701 15.18 125.543 16.386 124.703 17.934C123.863 19.47 123.443 21.252 123.443 23.28C123.443 25.284 123.851 27.06 124.667 28.608C125.495 30.144 126.647 31.35 128.123 32.226C129.599 33.102 131.315 33.54 133.271 33.54ZM133.271 28.968C131.747 28.968 130.589 28.458 129.797 27.438C129.017 26.406 128.627 25.02 128.627 23.28C128.627 21.588 128.999 20.22 129.743 19.176C130.499 18.12 131.675 17.592 133.271 17.592C134.819 17.592 135.983 18.108 136.763 19.14C137.555 20.172 137.951 21.552 137.951 23.28C137.951 24.948 137.561 26.316 136.781 27.384C136.013 28.44 134.843 28.968 133.271 28.968Z" fill="url(#paint0_linear_7_105)"/>
<defs>
<linearGradient id="paint0_linear_7_105" x1="2.6873" y1="2.95556" x2="158.061" y2="2.60218" gradientUnits="userSpaceOnUse">
<stop stop-color="#AE67FA"/>
<stop offset="0.973958" stop-color="#F49867"/>
</linearGradient>
</defs>
</svg>
